<svg width="22" height="19" fill="none" xmlns="http://www.w3.org/2000/svg"><path fill-rule="evenodd" clip-rule="evenodd" d="M19.175 2.79339c-1.6454-1.62692-4.3175-1.62865-5.9651-.00517l-2.2181 2.23801-2.24131-2.21612c-1.64992-1.64756-4.31738-1.63949-5.93677-.02227l-.00556.00556c-.79257.78367-1.21849 1.82289-1.21849 2.95156 0 1.1122.43702 2.15996 1.22471 2.95774l8.16602 8.0743 8.1946-8.10267c1.6502-1.63168 1.6421-4.27331.0056-5.87543l-.0056-.00551ZM10.9804 19 1.6841 9.80806C.606277 8.72013 0 7.27695 0 5.74496c0-1.53199.583822-2.97517 1.6841-4.0631C3.92173-.552786 7.58644-.560592 9.85625 1.68041c.00796.00786.0159.01574.02382.02365L10.9804 2.792l1.1002-1.11014c.0042-.00415.0084-.00829.0126-.01242 2.269-2.230052 5.9421-2.225911 8.2059.01242 2.2679 2.22027 2.2679 5.86152 0 8.104L10.9804 19Z" fill="#000"/></svg>